<?xml version="1.0" encoding="UTF-8"?>
<!DOCTYPE svg PUBLIC "-//W3C//DTD SVG 1.1//EN" "http://www.w3.org/Graphics/SVG/1.1/DTD/svg11.dtd">
<!-- Creator: CorelDRAW 2019 (64-Bit) -->
<svg xmlns="http://www.w3.org/2000/svg" xml:space="preserve" width="139.257mm" height="137.583mm" version="1.1" style="shape-rendering:geometricPrecision; text-rendering:geometricPrecision; image-rendering:optimizeQuality; fill-rule:evenodd; clip-rule:evenodd"
viewBox="0 0 10318.59 10194.56"
 xmlns:xlink="http://www.w3.org/1999/xlink">
 <defs>
  <style type="text/css">
   <![CDATA[
    .fil1 {fill:#FEFEFE}
    .fil0 {fill:#32B5C9}
   ]]>
  </style>
 </defs>
 <g id="Capa_x0020_1">
  <metadata id="CorelCorpID_0Corel-Layer"/>
  <ellipse class="fil0" cx="5159.3" cy="5097.28" rx="5159.29" ry="5097.28"/>
  <g id="_2020867660896">
   <path class="fil1" d="M2718.89 4909.12c-250.86,-176.78 -293.86,576.83 -567.48,664.25 -226.06,72.22 -474.12,-321.51 -633.07,-441.94 -94.87,-71.89 -206.52,-37.92 -152.46,97.3 20.95,52.42 278.61,287.35 351.14,371.05 153.74,177.43 176.88,173.74 261.59,456.74 482.74,1612.46 1811.72,2400.55 3477.45,2300.42 1498.83,-90.1 2932.19,-1084.49 3094.7,-2681.71 104.4,-1026.11 -101.73,-1615.57 -560.21,-2274.71 -685.8,-985.91 -1775.48,-1419.99 -2996.32,-1340.26 -460.85,30.1 -787.18,175.26 -1203.76,263.23 -208.81,44.09 -522.3,-0.78 -661.3,54.21 -404.59,160.04 -159.83,840.49 329.61,633.67 187.57,-79.25 191.1,-291.28 318.9,-396.2 188.33,-154.59 813.75,-278.86 1122.35,-314.51 2175.81,-251.35 3878.33,1737.29 3329.69,3710.97 -696.06,2504.02 -4231.5,2747.37 -5467.06,976.42 -108.59,-155.66 -171.91,-277.63 -267.14,-450.14 -98.28,-178.09 -197.85,-300.26 -170.74,-553.66 42.26,-394.74 398.62,-827.88 394.1,-1075.14z"/>
   <path class="fil1" d="M4942.14 6193.51c-456.44,-315.51 -336.16,-620.77 -81.54,-727.74 251.9,-105.82 309.19,79.61 442.41,125.69 129.81,-101.14 196.87,-218.84 435.48,-116.57 133.35,57.14 239.33,205.18 197.01,404.59 -38.15,179.72 -381.73,372.89 -632.49,591.16l-360.88 -277.13zm1985.98 304.23c93.59,-367.85 -93.38,-573.41 -327.65,-759.36l-564.71 -537.25c-88.01,-106.8 -244.92,-285.04 -349.06,-367.9 -357.81,-284.73 -792.88,-93.78 -1009.74,167.22 -456.81,549.82 -217.79,279.29 -698.4,762.46 -290.36,291.88 -426.21,664.8 -210.23,1065.32 250.29,464.15 731.33,222.49 1029.62,138.89 524.4,-146.99 783.53,15.49 1267.6,94.75 505.96,82.85 758.42,-154.78 862.57,-564.13z"/>
   <path class="fil1" d="M5845.34 3186.91c-667.34,152.79 -652.98,1587.86 124.52,1517.71 319.42,-28.82 470.09,-475.02 443.42,-847.37 -22.58,-315.38 -236.16,-746.29 -567.94,-670.34z"/>
   <path class="fil1" d="M4656.56 3179.79c-709.06,189.1 -527.19,1606.49 143.02,1429.54 724.6,-191.3 469.62,-1592.92 -143.02,-1429.54z"/>
   <path class="fil1" d="M7317.67 5062.85c55.73,-353.45 -58.5,-784.77 -305.04,-889.52 -215.67,-91.64 -595.81,76.01 -656.7,504.4 -149.46,1051.59 812.87,1329.35 961.75,385.13z"/>
   <path class="fil1" d="M3341.39 4960.36c139.33,886.94 1100.85,755.31 983.4,-174.1 -118.01,-933.79 -1131.66,-769.69 -983.4,174.1z"/>
   <path class="fil1" d="M5303.01 6470.64c250.77,-218.27 594.34,-411.44 632.49,-591.16 42.32,-199.42 -63.66,-347.45 -197.01,-404.59 -238.62,-102.27 -305.67,15.43 -435.48,116.57 -133.22,-46.08 -190.51,-231.51 -442.41,-125.69 -254.62,106.97 -374.9,412.23 81.54,727.74l360.88 277.13z"/>
   <path class="fil1" d="M1297.06 5005.49c-5.92,-169.76 -403.14,-357.53 -589.73,-958.5 -122.14,-393.43 -113.11,-757.42 273.23,-950.11 112.01,-55.87 75.69,-6.34 102.85,-120.59 -485.86,-2.82 -844.82,775.41 -212.76,1624.95 82.28,110.59 278.41,418.61 426.39,404.25z"/>
   <path class="fil1" d="M2194.5 2859.3c162.48,97.74 606.86,-48.26 678.47,716.33 22.53,240.56 -6.99,424.67 -56.04,639.01 -26.65,116.47 -182.58,453.49 -127.44,531.98 167.24,-77.1 291.47,-830.96 290.71,-1067.39 -1.33,-415.47 -158.58,-894.78 -623.99,-899.58 -95.7,-0.99 -159.63,-3.96 -161.72,79.65z"/>
   <path class="fil1" d="M1176.53 3013.03c93.91,72.82 170.94,77.16 263.29,0 -6.33,-184.18 -227.55,-158.66 -263.29,0z"/>
   <path class="fil1" d="M1927.79 2809.62c-192.02,91.3 -31.42,209.2 104.43,137.99 112.75,-59.1 68.45,-220.19 -104.43,-137.99z"/>
  </g>
 </g>
</svg>
